<svg width="312" height="5395" viewBox="0 0 312 5395" fill="none" xmlns="http://www.w3.org/2000/svg">
<path d="M37.1543 5339.48L83.1348 5339.48L83.1348 5394.72L37.1543 5394.72L37.1543 5339.48Z" fill="white"/>
<path d="M34.5312 5261.56C34.5312 5236.77 40.7031 5218.87 53.0469 5207.86C65.3906 5196.96 85.0378 5191.51 111.988 5191.51L138.527 5191.51L138.527 5245.2L104.582 5245.2C98.3073 5245.2 93.3698 5246.13 89.7695 5247.98C86.2721 5249.93 84.5234 5253.28 84.5234 5258.01C84.5234 5262.95 85.9635 5266.34 88.8437 5268.19C91.724 5270.15 96.4557 5271.12 103.039 5271.12C111.371 5271.12 118.314 5270.3 123.869 5268.66C129.527 5267.01 134.876 5264.13 139.916 5260.02C145.059 5256 151.025 5250.4 157.814 5243.2L180.959 5218.82C198.137 5200.61 217.785 5191.51 239.9 5191.51C263.045 5191.51 280.686 5196.86 292.824 5207.55C304.962 5218.36 311.031 5233.94 311.031 5254.31C311.031 5279.2 304.396 5296.84 291.127 5307.23C277.857 5317.72 257.696 5322.97 230.643 5322.97L230.643 5267.73L249.312 5267.73C253.016 5267.73 255.896 5266.65 257.953 5264.49C260.01 5262.43 261.039 5259.6 261.039 5256C261.039 5251.68 259.805 5248.49 257.336 5246.44C254.97 5244.48 251.884 5243.51 248.078 5243.51C244.272 5243.51 240.158 5244.53 235.734 5246.59C231.311 5248.65 226.219 5252.71 220.459 5258.78L190.371 5290.1C184.405 5296.38 178.079 5302.14 171.393 5307.38C164.809 5312.63 157.094 5316.85 148.248 5320.04C139.505 5323.23 128.807 5324.82 116.154 5324.82C90.6439 5324.82 70.6367 5320.09 56.1328 5310.62C41.7318 5301.26 34.5312 5284.91 34.5312 5261.56Z" fill="white"/>
<path d="M34.5312 5115.59C34.5312 5090.8 40.7031 5072.9 53.0469 5061.9C65.3906 5050.99 85.0378 5045.54 111.988 5045.54L138.527 5045.54L138.527 5099.24L104.582 5099.24C98.3073 5099.24 93.3698 5100.16 89.7695 5102.02C86.2721 5103.97 84.5234 5107.31 84.5234 5112.04C84.5234 5116.98 85.9635 5120.38 88.8437 5122.23C91.724 5124.18 96.4557 5125.16 103.039 5125.16C111.371 5125.16 118.314 5124.34 123.869 5122.69C129.527 5121.05 134.876 5118.17 139.916 5114.05C145.059 5110.04 151.025 5104.43 157.814 5097.23L180.959 5072.85C198.137 5054.65 217.785 5045.54 239.9 5045.54C263.045 5045.54 280.686 5050.89 292.824 5061.59C304.962 5072.39 311.031 5087.97 311.031 5108.34C311.031 5133.24 304.396 5150.88 291.127 5161.27C277.857 5171.76 257.696 5177 230.643 5177L230.643 5121.77L249.312 5121.77C253.016 5121.77 255.896 5120.69 257.953 5118.53C260.01 5116.47 261.039 5113.64 261.039 5110.04C261.039 5105.72 259.805 5102.53 257.336 5100.47C254.97 5098.52 251.884 5097.54 248.078 5097.54C244.272 5097.54 240.158 5098.57 235.734 5100.63C231.311 5102.68 226.219 5106.75 220.459 5112.82L190.371 5144.14C184.405 5150.41 178.079 5156.17 171.393 5161.42C164.809 5166.67 157.094 5170.88 148.248 5174.07C139.505 5177.26 128.807 5178.86 116.154 5178.86C90.6439 5178.86 70.6367 5174.12 56.1328 5164.66C41.7318 5155.3 34.5312 5138.94 34.5312 5115.59Z" fill="white"/>
<path d="M37 4920.87L308.562 4920.87L308.562 5029.5L256.102 5029.5L256.102 4976.11L203.178 4976.11L203.178 5027.34L152.105 5027.34L152.105 4976.11L89.9238 4976.11L89.9238 5033.04L37 5033.04L37 4920.87Z" fill="white"/>
<path d="M34.5312 4834.16C34.5312 4814.51 40.6517 4798.67 52.8926 4786.63C65.1335 4774.7 82.2604 4768.73 104.273 4768.73L229.562 4768.73C255.896 4768.73 276.057 4773.93 290.047 4784.32C304.036 4794.81 311.031 4811.83 311.031 4835.39C311.031 4848.25 308.665 4859.67 303.934 4869.64C299.202 4879.73 292.104 4887.65 282.641 4893.41C273.28 4899.17 261.451 4902.05 247.152 4902.05L200.246 4902.05L200.246 4848.04L240.363 4848.04C248.49 4848.04 253.941 4847.01 256.719 4844.96C259.599 4842.9 261.039 4839.71 261.039 4835.39C261.039 4830.35 259.187 4826.96 255.484 4825.21C251.884 4823.46 247.049 4822.58 240.98 4822.58L105.045 4822.58C97.5358 4822.58 92.2383 4823.66 89.1523 4825.82C86.0664 4828.09 84.5234 4831.28 84.5234 4835.39C84.5234 4840.02 86.4264 4843.26 90.2324 4845.11C94.0384 4847.07 98.9759 4848.04 105.045 4848.04L153.957 4848.04L153.957 4902.66L102.576 4902.66C78.7116 4902.66 61.3789 4896.65 50.5781 4884.61C39.8802 4872.58 34.5312 4855.76 34.5312 4834.16Z" fill="white"/>
<path d="M34.5312 4684.18C34.5312 4664.53 40.6517 4648.69 52.8926 4636.66C65.1335 4624.72 82.2604 4618.76 104.273 4618.76L229.562 4618.76C255.896 4618.76 276.057 4623.95 290.047 4634.34C304.036 4644.83 311.031 4661.86 311.031 4685.41C311.031 4698.27 308.665 4709.69 303.934 4719.67C299.202 4729.75 292.104 4737.67 282.641 4743.43C273.28 4749.19 261.451 4752.07 247.152 4752.07L200.246 4752.07L200.246 4698.07L240.363 4698.07C248.49 4698.07 253.941 4697.04 256.719 4694.98C259.599 4692.92 261.039 4689.73 261.039 4685.41C261.039 4680.37 259.187 4676.98 255.484 4675.23C251.884 4673.48 247.049 4672.61 240.98 4672.61L105.045 4672.61C97.5358 4672.61 92.2383 4673.69 89.1523 4675.85C86.0664 4678.11 84.5234 4681.3 84.5234 4685.41C84.5234 4690.04 86.4264 4693.28 90.2324 4695.13C94.0384 4697.09 98.9759 4698.07 105.045 4698.07L153.957 4698.07L153.957 4752.69L102.576 4752.69C78.7116 4752.69 61.3789 4746.67 50.5781 4734.63C39.8802 4722.6 34.5312 4705.78 34.5312 4684.18Z" fill="white"/>
<path d="M34.5312 4534.05C34.5312 4511.42 40.8574 4494.75 53.5098 4484.06C66.265 4473.36 84.9863 4468.01 109.674 4468.01L308.562 4468.01L308.562 4520.78L111.834 4520.78C107.308 4520.78 102.936 4521.04 98.7187 4521.55C94.6042 4522.07 91.2096 4523.25 88.5352 4525.1C85.8607 4526.95 84.5234 4529.93 84.5234 4534.05C84.5234 4538.27 85.8092 4541.3 88.3809 4543.15C91.0553 4545 94.5013 4546.14 98.7187 4546.55C102.936 4547.06 107.308 4547.32 111.834 4547.32L308.562 4547.32L308.562 4600.09L109.674 4600.09C84.9863 4600.09 66.265 4594.74 53.5098 4584.04C40.8574 4573.34 34.5312 4556.68 34.5312 4534.05Z" fill="white"/>
<path d="M34.5312 4389.78C34.5312 4364.99 40.7031 4347.09 53.0469 4336.09C65.3906 4325.18 85.0378 4319.73 111.988 4319.73L138.527 4319.73L138.527 4373.43L104.582 4373.43C98.3073 4373.43 93.3698 4374.35 89.7695 4376.2C86.2721 4378.16 84.5234 4381.5 84.5234 4386.23C84.5234 4391.17 85.9635 4394.56 88.8437 4396.42C91.724 4398.37 96.4557 4399.35 103.039 4399.35C111.371 4399.35 118.314 4398.52 123.869 4396.88C129.527 4395.23 134.876 4392.35 139.916 4388.24C145.059 4384.23 151.025 4378.62 157.814 4371.42L180.959 4347.04C198.137 4328.83 217.785 4319.73 239.9 4319.73C263.045 4319.73 280.686 4325.08 292.824 4335.78C304.962 4346.58 311.031 4362.16 311.031 4382.53C311.031 4407.42 304.396 4425.06 291.127 4435.45C277.857 4445.95 257.696 4451.19 230.643 4451.19L230.643 4395.95L249.312 4395.95C253.016 4395.95 255.896 4394.87 257.953 4392.71C260.01 4390.66 261.039 4387.83 261.039 4384.23C261.039 4379.91 259.805 4376.72 257.336 4374.66C254.97 4372.71 251.884 4371.73 248.078 4371.73C244.272 4371.73 240.158 4372.76 235.734 4374.81C231.311 4376.87 226.219 4380.93 220.459 4387L190.371 4418.33C184.405 4424.6 178.079 4430.36 171.393 4435.61C164.809 4440.85 157.094 4445.07 148.248 4448.26C139.505 4451.45 128.807 4453.04 116.154 4453.04C90.6439 4453.04 70.6367 4448.31 56.1328 4438.85C41.7318 4429.49 34.5312 4413.13 34.5312 4389.78Z" fill="white"/>
<path d="M37 4095.38L308.562 4095.38L308.562 4170.06C308.562 4189.61 303.111 4204.32 292.207 4214.19C281.406 4224.07 265.565 4229 244.684 4229L117.543 4229C91.8268 4229 71.974 4224.48 57.9844 4215.43C43.9948 4206.48 37 4190.74 37 4168.21L37 4095.38ZM84.9863 4150L84.9863 4159.42C84.9863 4169.39 89.821 4174.38 99.4902 4174.38L239.592 4174.38C248.644 4174.38 254.456 4173.15 257.027 4170.68C259.702 4168.31 261.039 4163.43 261.039 4156.02L261.039 4150L84.9863 4150Z" fill="white"/>
<path d="M37 3969.79L308.562 3969.79L308.562 4024.1L83.2891 4024.1L83.2891 4079.95L37 4079.95L37 3969.79Z" fill="white"/>
<path d="M37 3895.72L308.562 3895.72L308.562 3948.18L37 3948.18L37 3895.72Z" fill="white"/>
<path d="M34.5312 3811.32C34.5312 3788.69 40.8574 3772.03 53.5098 3761.33C66.265 3750.63 84.9863 3745.28 109.674 3745.28L308.562 3745.28L308.562 3798.05L111.834 3798.05C107.308 3798.05 102.936 3798.31 98.7187 3798.82C94.6042 3799.34 91.2096 3800.52 88.5352 3802.37C85.8607 3804.22 84.5234 3807.21 84.5234 3811.32C84.5234 3815.54 85.8092 3818.57 88.3809 3820.43C91.0553 3822.28 94.5013 3823.41 98.7187 3823.82C102.936 3824.33 107.308 3824.59 111.834 3824.59L308.562 3824.59L308.562 3877.36L109.674 3877.36C84.9863 3877.36 66.265 3872.01 53.5098 3861.31C40.8574 3850.62 34.5312 3833.95 34.5312 3811.32Z" fill="white"/>
<path d="M37 3597.31L308.562 3597.31L308.562 3670.91C308.562 3690.66 303.728 3705.01 294.059 3713.96C284.492 3723.01 268.651 3727.54 246.535 3727.54L234.654 3727.54C221.899 3727.54 211.561 3725.22 203.641 3720.6C195.72 3716.07 190.525 3709.13 188.057 3699.77C184.971 3712.01 177.719 3720.18 166.301 3724.3C154.986 3728.52 141.15 3730.62 124.795 3730.62C107.205 3730.62 91.8268 3728.98 78.6602 3725.69C65.4935 3722.4 55.2585 3716.43 47.9551 3707.79C40.6517 3699.15 37 3686.86 37 3670.91L37 3597.31ZM206.264 3650.39L206.264 3661.5C206.264 3666.54 208.218 3669.78 212.127 3671.22C216.036 3672.66 220.716 3673.38 226.168 3673.38L253.479 3673.38C262.222 3673.38 266.594 3669.52 266.594 3661.81L266.594 3650.39L206.264 3650.39ZM84.832 3655.79C84.832 3669.88 91.5182 3676.93 104.891 3676.93L138.836 3676.93C146.551 3676.93 152.62 3675.75 157.043 3673.38C161.569 3671.12 163.832 3666.8 163.832 3660.42L163.832 3650.39L85.1406 3650.39C84.9349 3652.65 84.832 3654.45 84.832 3655.79Z" fill="white"/>
<path d="M34.5312 3441.78C34.5312 3416.99 40.7031 3399.09 53.0469 3388.09C65.3906 3377.18 85.0378 3371.73 111.988 3371.73L138.527 3371.73L138.527 3425.43L104.582 3425.43C98.3073 3425.43 93.3698 3426.35 89.7695 3428.2C86.2721 3430.16 84.5234 3433.5 84.5234 3438.23C84.5234 3443.17 85.9635 3446.56 88.8437 3448.42C91.724 3450.37 96.4557 3451.35 103.039 3451.35C111.371 3451.35 118.314 3450.52 123.869 3448.88C129.527 3447.23 134.876 3444.35 139.916 3440.24C145.059 3436.23 151.025 3430.62 157.814 3423.42L180.959 3399.04C198.137 3380.83 217.785 3371.73 239.9 3371.73C263.045 3371.73 280.686 3377.08 292.824 3387.78C304.962 3398.58 311.031 3414.16 311.031 3434.53C311.031 3459.42 304.396 3477.06 291.127 3487.45C277.857 3497.95 257.696 3503.19 230.643 3503.19L230.643 3447.95L249.312 3447.95C253.016 3447.95 255.896 3446.87 257.953 3444.71C260.01 3442.66 261.039 3439.83 261.039 3436.23C261.039 3431.91 259.805 3428.72 257.336 3426.66C254.97 3424.71 251.884 3423.73 248.078 3423.73C244.272 3423.73 240.158 3424.76 235.734 3426.81C231.311 3428.87 226.219 3432.93 220.459 3439L190.371 3470.33C184.405 3476.6 178.079 3482.36 171.393 3487.61C164.809 3492.85 157.094 3497.07 148.248 3500.26C139.505 3503.45 128.807 3505.04 116.154 3505.04C90.6439 3505.04 70.6367 3500.31 56.1328 3490.85C41.7318 3481.49 34.5312 3465.13 34.5312 3441.78Z" fill="white"/>
<path d="M37 3141.52L308.562 3141.52L308.562 3224.22L143.002 3247.06L308.562 3269.74L308.562 3353.21L37 3353.21L37 3303.53L232.648 3303.53L37 3272.36L37 3223.61L232.648 3190.59L37 3190.59L37 3141.52Z" fill="white"/>
<path d="M37 2980.74L308.562 3006.97L308.562 3099.09L37 3124.86L37 3073.47L80.8203 3069.62L80.8203 3036.91L37 3033.51L37 2980.74ZM124.178 3040.76L124.178 3065.45L262.273 3053.57L262.273 3051.1L124.178 3040.76Z" fill="white"/>
<path d="M37 2857.92L308.562 2857.92L308.562 2966.55L256.102 2966.55L256.102 2913.16L203.178 2913.16L203.178 2964.39L152.105 2964.39L152.105 2913.16L89.9238 2913.16L89.9238 2970.1L37 2970.1L37 2857.92Z" fill="white"/>
<path d="M37 2756.24L256.41 2756.24L256.41 2723.99L308.562 2723.99L308.562 2842.8L256.41 2842.8L256.41 2810.55L37 2810.55L37 2756.24Z" fill="white"/>
<path d="M0.740234 2590.06L37.1543 2600.25L37.1543 2580.65L83.1348 2580.65L83.1348 2638.36L38.543 2638.36L0.740233 2622.62L0.740234 2590.06Z" fill="white"/>
<path d="M34.5312 2502.73C34.5312 2477.94 40.7031 2460.04 53.0469 2449.04C65.3906 2438.13 85.0378 2432.68 111.988 2432.68L138.527 2432.68L138.527 2486.37L104.582 2486.37C98.3073 2486.37 93.3698 2487.3 89.7695 2489.15C86.2721 2491.11 84.5234 2494.45 84.5234 2499.18C84.5234 2504.12 85.9635 2507.51 88.8437 2509.37C91.724 2511.32 96.4557 2512.3 103.039 2512.3C111.371 2512.3 118.314 2511.47 123.869 2509.83C129.527 2508.18 134.876 2505.3 139.916 2501.19C145.059 2497.18 151.025 2491.57 157.814 2484.37L180.959 2459.99C198.137 2441.78 217.785 2432.68 239.9 2432.68C263.045 2432.68 280.686 2438.03 292.824 2448.73C304.962 2459.53 311.031 2475.11 311.031 2495.48C311.031 2520.37 304.396 2538.01 291.127 2548.4C277.857 2558.89 257.696 2564.14 230.643 2564.14L230.643 2508.9L249.312 2508.9C253.016 2508.9 255.896 2507.82 257.953 2505.66C260.01 2503.6 261.039 2500.78 261.039 2497.18C261.039 2492.86 259.805 2489.67 257.336 2487.61C254.97 2485.65 251.884 2484.68 248.078 2484.68C244.272 2484.68 240.158 2485.71 235.734 2487.76C231.311 2489.82 226.219 2493.88 220.459 2499.95L190.371 2531.28C184.405 2537.55 178.079 2543.31 171.393 2548.56C164.809 2553.8 157.094 2558.02 148.248 2561.21C139.505 2564.4 128.807 2565.99 116.154 2565.99C90.6439 2565.99 70.6367 2561.26 56.1328 2551.8C41.7318 2542.44 34.5312 2526.08 34.5312 2502.73Z" fill="white"/>
<path d="M37 2202.47L308.562 2202.47L308.562 2285.17L143.002 2308.01L308.562 2330.69L308.562 2414.16L37 2414.16L37 2364.48L232.648 2364.48L37 2333.31L37 2284.55L232.648 2251.54L37 2251.54L37 2202.47Z" fill="white"/>
<path d="M37 2041.69L308.562 2067.92L308.562 2160.04L37 2185.8L37 2134.42L80.8203 2130.57L80.8203 2097.86L37 2094.46L37 2041.69ZM124.178 2101.71L124.178 2126.4L262.273 2114.52L262.273 2112.05L124.178 2101.71Z" fill="white"/>
<path d="M37 1918.87L308.562 1918.87L308.562 2027.5L256.102 2027.5L256.102 1974.11L203.178 1974.11L203.178 2025.34L152.105 2025.34L152.105 1974.11L89.9238 1974.11L89.9238 2031.04L37 2031.04L37 1918.87Z" fill="white"/>
<path d="M37 1817.19L256.41 1817.19L256.41 1784.94L308.562 1784.94L308.562 1903.75L256.41 1903.75L256.41 1871.5L37 1871.5L37 1817.19Z" fill="white"/>
<path d="M37 1563.99L308.562 1563.99L308.562 1638.67C308.562 1658.21 303.111 1672.92 292.207 1682.8C281.406 1692.67 265.565 1697.61 244.684 1697.61L117.543 1697.61C91.8268 1697.61 71.974 1693.08 57.9844 1684.03C43.9948 1675.08 37 1659.34 37 1636.82L37 1563.99ZM84.9863 1618.61L84.9863 1628.02C84.9863 1638 89.821 1642.99 99.4902 1642.99L239.592 1642.99C248.644 1642.99 254.456 1641.75 257.027 1639.29C259.702 1636.92 261.039 1632.03 261.039 1624.63L261.039 1618.61L84.9863 1618.61Z" fill="white"/>
<path d="M37 1438.39L308.562 1438.39L308.562 1492.7L83.2891 1492.7L83.2891 1548.56L37 1548.56L37 1438.39Z" fill="white"/>
<path d="M37 1364.33L308.562 1364.33L308.562 1416.79L37 1416.79L37 1364.33Z" fill="white"/>
<path d="M34.5312 1279.93C34.5312 1257.3 40.8574 1240.63 53.5098 1229.94C66.265 1219.24 84.9863 1213.89 109.674 1213.89L308.562 1213.89L308.562 1266.66L111.834 1266.66C107.308 1266.66 102.936 1266.92 98.7187 1267.43C94.6042 1267.94 91.2096 1269.13 88.5352 1270.98C85.8607 1272.83 84.5234 1275.81 84.5234 1279.93C84.5234 1284.15 85.8092 1287.18 88.3809 1289.03C91.0553 1290.88 94.5013 1292.01 98.7187 1292.43C102.936 1292.94 107.308 1293.2 111.834 1293.2L308.562 1293.2L308.562 1345.97L109.674 1345.97C84.9863 1345.97 66.265 1340.62 53.5098 1329.92C40.8574 1319.22 34.5312 1302.56 34.5312 1279.93Z" fill="white"/>
<path d="M37 1065.92L308.562 1065.92L308.562 1139.52C308.562 1159.27 303.728 1173.62 294.059 1182.57C284.492 1191.62 268.651 1196.14 246.535 1196.14L234.654 1196.14C221.899 1196.14 211.561 1193.83 203.641 1189.2C195.72 1184.68 190.525 1177.73 188.057 1168.37C184.971 1180.61 177.719 1188.79 166.301 1192.9C154.986 1197.12 141.15 1199.23 124.795 1199.23C107.205 1199.23 91.8268 1197.58 78.6602 1194.29C65.4935 1191 55.2585 1185.04 47.9551 1176.39C40.6517 1167.75 37 1155.46 37 1139.52L37 1065.92ZM206.264 1119L206.264 1130.11C206.264 1135.15 208.218 1138.39 212.127 1139.83C216.036 1141.27 220.716 1141.99 226.168 1141.99L253.479 1141.99C262.222 1141.99 266.594 1138.13 266.594 1130.41L266.594 1119L206.264 1119ZM84.832 1124.4C84.832 1138.49 91.5182 1145.54 104.891 1145.54L138.836 1145.54C146.551 1145.54 152.62 1144.35 157.043 1141.99C161.569 1139.72 163.832 1135.4 163.832 1129.03L163.832 1119L85.1406 1119C84.9349 1121.26 84.832 1123.06 84.832 1124.4Z" fill="white"/>
<path d="M34.5312 910.387C34.5312 885.596 40.7031 867.698 53.0469 856.691C65.3906 845.788 85.0378 840.336 111.988 840.336L138.527 840.336L138.527 894.031L104.582 894.031C98.3073 894.031 93.3698 894.957 89.7695 896.809C86.2721 898.763 84.5234 902.106 84.5234 906.838C84.5234 911.775 85.9635 915.17 88.8437 917.021C91.724 918.976 96.4557 919.953 103.039 919.953C111.371 919.953 118.314 919.13 123.869 917.484C129.527 915.839 134.876 912.958 139.916 908.844C145.059 904.832 151.025 899.226 157.814 892.025L180.959 867.646C198.137 849.439 217.785 840.336 239.9 840.336C263.045 840.336 280.686 845.685 292.824 856.383C304.962 867.184 311.031 882.768 311.031 903.135C311.031 928.028 304.396 945.669 291.127 956.059C277.857 966.551 257.696 971.797 230.643 971.797L230.643 916.559L249.312 916.559C253.016 916.559 255.896 915.479 257.953 913.318C260.01 911.261 261.039 908.432 261.039 904.832C261.039 900.512 259.805 897.323 257.336 895.266C254.97 893.311 251.884 892.334 248.078 892.334C244.272 892.334 240.158 893.363 235.734 895.42C231.311 897.477 226.219 901.54 220.459 907.609L190.371 938.932C184.405 945.206 178.079 950.967 171.393 956.213C164.809 961.459 157.094 965.676 148.248 968.865C139.505 972.054 128.807 973.648 116.154 973.648C90.6439 973.648 70.6367 968.917 56.1328 959.453C41.7318 950.092 34.5312 933.737 34.5312 910.387Z" fill="white"/>
<path d="M37 695.297L308.562 695.297L308.562 778.617C308.562 792.504 305.374 802.996 298.996 810.094C292.721 817.191 283.875 821.923 272.457 824.289C261.142 826.758 247.821 827.992 232.494 827.992C217.682 827.992 205.852 826.089 197.006 822.283C188.159 818.58 182.039 811.534 178.645 801.145C176.896 809.682 172.627 815.648 165.838 819.043C159.152 822.54 150.46 824.289 139.762 824.289L37 824.289L37 770.748L143.311 770.748C151.231 770.748 156.117 769.102 157.969 765.811C159.923 762.622 160.9 757.427 160.9 750.227L37 750.227L37 695.297ZM207.961 750.535L207.961 763.65C207.961 771.16 216.139 774.914 232.494 774.914C243.089 774.914 250.033 774.091 253.324 772.445C256.616 770.799 258.262 767.714 258.262 763.187L258.262 750.535L207.961 750.535Z" fill="white"/>
<path d="M37 565.07L308.562 565.07L308.562 673.695L256.102 673.695L256.102 620.309L203.178 620.309L203.178 671.535L152.105 671.535L152.105 620.309L89.9238 620.309L89.9238 677.244L37 677.244L37 565.07Z" fill="white"/>
<path d="M37 409.23L308.562 409.23L308.562 483.91C308.562 503.454 303.111 518.164 292.207 528.039C281.406 537.914 265.565 542.852 244.684 542.852L117.543 542.852C91.8268 542.852 71.974 538.326 57.9844 529.273C43.9948 520.324 37 504.586 37 482.059L37 409.23ZM84.9863 463.852L84.9863 473.264C84.9863 483.242 89.821 488.23 99.4902 488.23L239.592 488.23C248.644 488.23 254.456 486.996 257.027 484.527C259.702 482.161 261.039 477.275 261.039 469.869L261.039 463.852L84.9863 463.852Z" fill="white"/>
<path d="M37 248.453L308.562 274.684L308.562 366.799L37 392.566L37 341.186L80.8203 337.328L80.8203 304.617L37 301.223L37 248.453ZM124.178 308.475L124.178 333.162L262.273 321.281L262.273 318.812L124.178 308.475Z" fill="white"/>
<path d="M37 125.633L308.562 125.633L308.562 234.258L256.102 234.258L256.102 180.871L203.178 180.871L203.178 232.098L152.105 232.098L152.105 180.871L89.9238 180.871L89.9238 237.807L37 237.807L37 125.633Z" fill="white"/>
<path d="M37 0.0351444L308.562 0.0351562L308.562 54.3477L83.2891 54.3476L83.2891 110.203L37 110.203L37 0.0351444Z" fill="white"/>
</svg>
