<svg width="441" height="114" viewBox="0 0 441 114" fill="none" xmlns="http://www.w3.org/2000/svg">
<g clip-path="url(#clip0_42_468)">
<path d="M401.52 69.6595V55.9243V33.6326V19.8975H427.077L441 33.6326H415.442V55.9243V69.6595H401.52Z" fill="#000252"/>
<path d="M208.535 69.6598V55.9456V13.7352V0H241.766L255.695 13.7352V55.9456L241.766 69.6598H208.535ZM241.766 15.8289V13.7352H222.465V55.9456H241.766V15.8289Z" fill="#000252"/>
<path d="M310.562 19.828H279.529L269.484 29.8781V59.5329L279.529 69.583H310.562L320.606 59.5329V29.8781L310.562 19.828ZM306.684 41.1217V55.8479H276.46L283.407 51.8348V33.5562H306.677V41.1217H306.684Z" fill="#000252"/>
<path d="M375.21 19.828H344.177L334.133 29.8781V59.5329L344.177 69.583H375.21L385.255 59.5329V29.8781L375.21 19.828ZM371.332 41.1217V55.8479H348.063H341.115L348.063 51.8348V33.5562H371.332V41.1217Z" fill="#000252"/>
<path d="M80.243 69.6593L66.3203 55.9242V19.9043H80.243V55.9242H103.513V19.9043H117.435V69.6593H80.2361H80.243Z" fill="#000252"/>
<path d="M135.488 69.6598V55.9247V33.633V19.8978H149.411V55.9177V69.6529H135.488V69.6598ZM135.488 13.7352V0H149.411V13.7352H135.488Z" fill="#000252"/>
<path d="M168.25 69.6598V55.9247V13.7352V0H182.173V55.9247V69.6598H168.25Z" fill="#000252"/>
<path d="M51.4697 13.7352L37.547 0H0.347656V69.6598H37.547L51.4697 55.9247V38.8395L44.5223 34.8264L51.4697 30.8134V13.7282V13.7352ZM37.547 55.9247H14.2774H7.32994L14.2774 51.9116V41.1985H37.547V55.9247ZM37.547 15.8219V28.4614H7.32297L14.2704 24.4483V13.7352H37.54V15.8219H37.547Z" fill="#000252"/>
<path d="M0 91.4281H13.6995V97.3116H11.3977V93.829H4.66648V101.478H11.4046V103.879H4.66648V111.528H6.96833V113.929H0V111.528H2.01586V93.822H0V91.4211V91.4281Z" fill="#000252"/>
<path d="M20.8713 113.937L17.8789 110.635V97.7309L20.8713 94.4297H28.9906L31.983 97.7309V110.635L28.9906 113.937H20.8713ZM21.9943 111.354H27.8396L29.3393 109.763V98.5963L27.8676 97.005H22.0222L20.5225 98.5963V109.763L21.9943 111.354Z" fill="#000252"/>
<path d="M37.3038 94.4297H48.8201L51.8125 97.7309V103.733L48.9038 106.916L51.5823 111.536H53.1099V113.937H47.983V111.536H48.7852L46.1974 107.034H41.9634V111.536H43.6863V113.937H37.2969V111.536H39.3127V96.8305H37.2969V94.4297H37.3038ZM41.9703 97.012V104.452H47.6692L49.3363 102.679V98.7778L47.6971 97.005H41.9703V97.012Z" fill="#000252"/>
<path d="M72.2521 91.4277H79.9389V93.8286H78.6136L83.6777 111.535H85.1146V113.936H79.0112V111.535H81.0271L79.7018 106.915H72.4753L71.15 111.535H73.1659V113.936H67.0625V111.535H68.4994L73.5635 93.8286H72.2382V91.4277H72.2521ZM76.0816 94.2753L73.1729 104.507H79.0182L76.0816 94.2753Z" fill="#000252"/>
<path d="M99.5115 106.853H101.813V110.635L98.8209 113.937H91.5666L88.5742 110.635V97.7309L91.5666 94.4297H98.8209L101.813 97.7309V101.514H99.5115V98.9592L97.6979 97.012H92.7175L91.2248 98.6033V109.77L92.6897 111.361H97.67L99.5115 109.414V106.86V106.853Z" fill="#000252"/>
<path d="M116.816 113.936H108.41V111.535H111.291V96.8296H107.315V100.312H105.125V94.4287H120.094V100.312H117.904V96.8296H113.928V111.535H116.809V113.936H116.816Z" fill="#000252"/>
<path d="M123.695 111.536H125.997V96.8305H123.695V94.4297H130.95V96.8305H128.648V111.536H130.95V113.937H123.695V111.536Z" fill="#000252"/>
<path d="M134.254 96.8305V94.4297H140.357V96.8305H138.488L143.552 111.564L148.644 96.8305H146.775V94.4297H152.878V96.8305H151.295L145.393 113.937H141.738L135.837 96.8305H134.254Z" fill="#000252"/>
<path d="M156.477 94.4289H170.176V100.312H167.874V96.8297H161.136V102.978H167.874V105.379H161.136V111.528H167.874V108.045H170.176V113.929H156.477V111.528H158.492V96.8227H156.477V94.4219V94.4289Z" fill="#000252"/>
<path d="M196.551 113.936H188.146V111.535H191.026V93.8286H186.764V97.3112H184.574V91.4277H200.122V97.3112H197.932V93.8286H193.67V111.535H196.551V113.936Z" fill="#000252"/>
<path d="M203.711 94.4289H217.41V100.312H215.109V96.8297H208.37V102.978H215.109V105.379H208.37V111.528H215.109V108.045H217.41V113.929H203.711V111.528H205.727V96.8227H203.711V94.4219V94.4289Z" fill="#000252"/>
<path d="M232.823 113.937V111.536H234.72L233.479 107.816H226.28L225.038 111.536H226.971V113.937H220.867V111.536H222.395L227.257 96.8305H226.05V94.4297H233.737V96.8305H232.495L237.357 111.536H238.912V113.937H232.809H232.823ZM229.886 96.9213L227.068 105.415H232.711L229.893 96.9213H229.886Z" fill="#000252"/>
<path d="M247.038 111.536H249.054V113.937H242.379V111.536H244.395V96.8305H242.379V94.4297H248.252L253.693 108.625L259.134 94.4297H265.007V96.8305H262.991V111.536H265.007V113.937H258.324V111.536H260.34V97.8216L254.955 111.536H252.423L247.038 97.8216V111.536Z" fill="#000252"/>
<path d="M194.605 27.4496L208.535 13.7354V55.9388L194.605 69.6531V27.4496Z" fill="#D8510E"/>
<path d="M208.535 27.4496L222.465 13.7354V55.9458L208.535 69.66V27.4496Z" fill="#D8510E"/>
<path d="M208.535 27.4493H194.605V69.6598H208.535V27.4493Z" fill="#FF7427"/>
</g>
<defs>
<clipPath id="clip0_42_468">
<rect width="441" height="113.936" fill="white"/>
</clipPath>
</defs>
</svg>
