<svg width="441" height="112" viewBox="0 0 441 112" fill="none" xmlns="http://www.w3.org/2000/svg">
<g clip-path="url(#clip0_42_501)">
<path d="M401.52 70.4683V56.5737V34.0233V20.1287H427.077L441 34.0233H415.442V56.5737V70.4683H401.52Z" fill="#000252"/>
<path d="M208.535 70.4683V56.5949V13.8946V0H241.766L255.695 13.8946V56.5949L241.766 70.4683H208.535ZM241.766 16.0126V13.8946H222.465V56.5949H241.766V16.0126Z" fill="#000252"/>
<path d="M310.562 20.0586H279.529L269.484 30.2253V60.2243L279.529 70.3911H310.562L320.606 60.2243V30.2253L310.562 20.0586ZM306.684 41.5994V56.4965H276.46L283.407 52.4369V33.9461H306.677V41.5994H306.684Z" fill="#000252"/>
<path d="M375.21 20.0586H344.177L334.133 30.2253V60.2243L344.177 70.3911H375.21L385.255 60.2243V30.2253L375.21 20.0586ZM371.332 41.5994V56.4965H348.063H341.115L348.063 52.4369V33.9461H371.332V41.5994Z" fill="#000252"/>
<path d="M80.2352 70.4683L66.3125 56.5737V20.1358H80.2352V56.5737H103.505V20.1358H117.428V70.4683H80.2282H80.2352Z" fill="#000252"/>
<path d="M135.488 70.4683V56.5737V34.0233V20.1288H149.411V56.5667V70.4612H135.488V70.4683ZM135.488 13.8946V0H149.411V13.8946H135.488Z" fill="#000252"/>
<path d="M168.25 70.4683V56.5737V13.8946V0H182.173V56.5737V70.4683H168.25Z" fill="#000252"/>
<path d="M51.4697 13.8946L37.54 0H0.347656V70.4683H37.547L51.4697 56.5737V39.2903L44.5223 35.2306L51.4697 31.171V13.8875V13.8946ZM37.54 56.5737H14.2704H7.32297L14.2704 52.5141V41.6766H37.54V56.5737ZM37.54 16.0056V28.7917H7.32297L14.2704 24.732V13.8946H37.54V16.0056Z" fill="#000252"/>
<path d="M0 88.4856H13.6995V94.4374H11.3977V90.9143H4.66648V98.6523H11.4046V101.081H4.66648V108.819H6.96833V111.248H0V108.819H2.01586V90.9072H0V88.4785V88.4856Z" fill="#000252"/>
<path d="M20.8713 111.255L17.8789 107.915V94.861L20.8713 91.5215H28.9906L31.983 94.861V107.915L28.9906 111.255H20.8713ZM21.9943 108.643H27.8396L29.3393 107.033V95.7365L27.8745 94.1267H22.0292L20.5365 95.7365V107.033L22.0013 108.643H21.9943Z" fill="#000252"/>
<path d="M37.3047 91.5215H48.8209L51.8133 94.861V100.933L48.9046 104.152L51.5831 108.826H53.1107V111.255H47.9839V108.826H48.793L46.2052 104.272H41.9712V108.826H43.701V111.255H37.3117V108.826H39.3275V93.9502H37.3117V91.5215H37.3047ZM41.9712 94.1338V101.66H47.67L49.3371 99.8667V95.92L47.6979 94.1267H41.9712V94.1338Z" fill="#000252"/>
<path d="M73.6048 108.827H75.6207V111.256H68.9453V108.827H70.9612V90.9151H68.9453V88.4863H74.9301L83.3354 107.824V90.9151H81.3195V88.4863H87.9949V90.9151H85.979V111.256H82.0031L73.5978 91.9458V108.827H73.6048Z" fill="#000252"/>
<path d="M93.0391 91.5217H106.739V97.4735H104.437V93.9504H97.6986V100.171H104.437V102.599H97.6986V108.819H104.437V105.296H106.739V111.248H93.0391V108.819H95.0549V93.9434H93.0391V91.5146V91.5217Z" fill="#000252"/>
<path d="M110.335 93.9502V91.5215H116.438V93.9502H114.423L118.482 108.367L122.57 93.9502H121.419V91.5215H127.634V93.9502H126.483L130.543 108.367L134.63 93.9502H132.614V91.5215H138.718V93.9502H137.281L132.384 111.255H128.841L124.523 95.9836L120.205 111.255H116.662L111.765 93.9502H110.328H110.335Z" fill="#000252"/>
<path d="M153.109 88.4856H166.808V94.4374H164.506V90.9143H157.768V98.6523H164.506V101.081H157.768V108.819H160.07V111.248H153.102V108.819H155.117V90.9072H153.102V88.4785L153.109 88.4856Z" fill="#000252"/>
<path d="M170.984 91.5215H182.5L185.492 94.861V100.933L182.583 104.152L185.262 108.826H186.79V111.255H181.663V108.826H182.465L179.877 104.272H175.643V108.826H177.366V111.255H170.977V108.826H172.992V93.9502H170.977V91.5215H170.984ZM175.65 94.1338V101.66H181.349L183.016 99.8667V95.92L181.377 94.1267H175.65V94.1338Z" fill="#000252"/>
<path d="M191.828 91.5217H205.528V97.4735H203.226V93.9504H196.488V100.171H203.226V102.599H196.488V108.819H203.226V105.296H205.528V111.248H191.828V108.819H193.844V93.9434H191.828V91.5146V91.5217Z" fill="#000252"/>
<path d="M223.523 98.6879H221.131V96.0191L219.401 94.134H215L213.507 95.7437V98.7161L214.916 100.234H220.901L223.809 103.454V107.916L220.817 111.255H213.563L210.57 107.916V104.089H212.963V106.758L214.721 108.643H219.701L221.173 107.033V104.329L219.792 102.839H213.807L210.87 99.5916V94.8542L213.863 91.5146H220.538L223.53 94.8542V98.6808L223.523 98.6879Z" fill="#000252"/>
<path d="M228.844 91.5215H235.519V93.9502H233.503V100.17H242.369V93.9502H240.353V91.5215H247.035V93.9502H245.019V108.826H247.035V111.255H240.353V108.826H242.369V102.606H233.503V108.826H235.519V111.255H228.844V108.826H230.86V93.9502H228.844V91.5215Z" fill="#000252"/>
<path d="M252.359 91.5217H266.059V97.4735H263.757V93.9504H257.019V100.171H263.757V102.599H257.019V108.819H263.757V105.296H266.059V111.248H252.359V108.819H254.375V93.9434H252.359V91.5146V91.5217Z" fill="#000252"/>
<path d="M271.39 91.5215H282.906L285.898 94.861V100.933L282.99 104.152L285.668 108.826H287.196V111.255H282.069V108.826H282.871L280.283 104.272H276.049V108.826H277.772V111.255H271.383V108.826H273.399V93.9502H271.383V91.5215H271.39ZM276.056 94.1338V101.66H281.755L283.422 99.8667V95.92L281.783 94.1267H276.056V94.1338Z" fill="#000252"/>
<path d="M304.898 98.6879H302.506V96.0191L300.783 94.134H296.382L294.882 95.7437V98.7161L296.291 100.234H302.276L305.184 103.454V107.916L302.192 111.255H294.938L291.945 107.916V104.089H294.338V106.758L296.096 108.643H301.076L302.548 107.033V104.329L301.167 102.839H295.182L292.245 99.5916V94.8542L295.238 91.5146H301.913L304.905 94.8542V98.6808L304.898 98.6879Z" fill="#000252"/>
<path d="M194.605 27.7679L208.535 13.8945V56.5878L194.605 70.4612V27.7679Z" fill="#0EAF0E"/>
<path d="M208.535 27.7679L222.465 13.8945V56.5949L208.535 70.4683V27.7679Z" fill="#0EAF0E"/>
<path d="M208.535 27.7676H194.605V70.4679H208.535V27.7676Z" fill="#22DD22"/>
</g>
<defs>
<clipPath id="clip0_42_501">
<rect width="441" height="111.255" fill="white"/>
</clipPath>
</defs>
</svg>
