<svg width="441" height="111" viewBox="0 0 441 111" fill="none" xmlns="http://www.w3.org/2000/svg">
<g clip-path="url(#clip0_42_395)">
<path d="M401.52 69.9163V56.1306V33.7569V19.9712H427.077L441 33.7569H415.442V56.1306V69.9163H401.52Z" fill="#000252"/>
<path d="M208.535 69.9161V56.1515V13.7857V0H241.766L255.695 13.7857V56.1515L241.766 69.9161H208.535ZM241.766 15.8872V13.7857H222.465V56.1515H241.766V15.8872Z" fill="#000252"/>
<path d="M310.562 19.9009H279.529L269.484 29.988V59.7519L279.529 69.839H310.562L320.606 59.7519V29.988L310.562 19.9009ZM306.684 41.2729V56.0533H276.46L283.407 52.0255V33.6796H306.677V41.2729H306.684Z" fill="#000252"/>
<path d="M375.21 19.9009H344.177L334.133 29.988V59.7519L344.177 69.839H375.21L385.255 59.7519V29.988L375.21 19.9009ZM371.332 41.2729V56.0533H348.063H341.115L348.063 52.0255V33.6796H371.332V41.2729Z" fill="#000252"/>
<path d="M80.243 69.9161L66.3203 56.1304V19.978H80.243V56.1304H103.513V19.978H117.435V69.9161H80.2361H80.243Z" fill="#000252"/>
<path d="M135.488 69.9161V56.1304V33.7567V19.971H149.411V56.1234V69.9091H135.488V69.9161ZM135.488 13.7857V0H149.411V13.7857H135.488Z" fill="#000252"/>
<path d="M168.25 69.9161V56.1304V13.7857V0H182.173V56.1304V69.9161H168.25Z" fill="#000252"/>
<path d="M51.4697 13.7857L37.54 0H0.347656V69.9161H37.547L51.4697 56.1304V38.9824L44.5223 34.9546L51.4697 30.9267V13.7787V13.7857ZM37.54 56.1304H14.2704H7.32297L14.2704 52.1026V41.3501H37.54V56.1304ZM37.54 15.8802V28.5661H7.32297L14.2704 24.5382V13.7857H37.54V15.8802Z" fill="#000252"/>
<path d="M0 88.4091H13.6995V94.3143H11.3977V90.8188H4.66648V98.4962H11.4046V100.906H4.66648V108.583H6.96833V110.993H0V108.583H2.01586V90.8118H0V88.4021V88.4091Z" fill="#000252"/>
<path d="M20.8713 111L17.8789 107.687V94.7347L20.8713 91.4214H28.9906L31.983 94.7347V107.687L28.9906 111H20.8713ZM21.9943 108.408H27.8396L29.3393 106.811V95.6033L27.8676 94.0062H22.0222L20.5225 95.6033V106.811L21.9943 108.408Z" fill="#000252"/>
<path d="M37.3038 91.4214H48.8201L51.8125 94.7347V100.759L48.9038 103.953L51.5823 108.59H53.1099V111H47.983V108.59H48.7852L46.1974 104.072H41.9634V108.59H43.6863V111H37.2969V108.59H39.3127V93.8311H37.2969V91.4214H37.3038ZM41.9703 94.0132V101.48H47.6692L49.3363 99.7012V95.7855L47.6971 94.0062H41.9703V94.0132Z" fill="#000252"/>
<path d="M68.9453 88.4092H75.9137V90.8189H73.6118V108.59H79.8896V105.095H82.0798V111H68.9523V108.59H70.9682V90.8189H68.9523V88.4092H68.9453Z" fill="#000252"/>
<path d="M85.6641 91.4211H99.3636V97.3262H97.0617V93.8308H90.3236V100.002H97.0617V102.412H90.3236V108.583H97.0617V105.088H99.3636V110.993H85.6641V108.583H87.6799V93.8238H85.6641V91.4141V91.4211Z" fill="#000252"/>
<path d="M114.772 111V108.59H116.669L115.428 104.856H108.229L106.988 108.59H108.92V111H102.816V108.59H104.344L109.206 93.8306H107.999V91.4209H115.686V93.8306H114.444L119.306 108.59H120.862V111H114.758H114.772ZM111.835 93.9217L109.017 102.447H114.66L111.842 93.9217H111.835Z" fill="#000252"/>
<path d="M124 91H136.263L139.255 94.3133V107.265L136.263 110.579H124V108.169H126.016V93.4097H124V91ZM128.66 107.987H135.105L136.604 106.39V95.1819L135.133 93.5848H128.653V107.98L128.66 107.987Z" fill="#000252"/>
<path d="M144.906 91.4211H158.606V97.3262H156.304V93.8308H149.566V100.002H156.304V102.412H149.566V108.583H156.304V105.088H158.606V110.993H144.906V108.583H146.922V93.8238H144.906V91.4141V91.4211Z" fill="#000252"/>
<path d="M163.933 91.4214H175.449L178.441 94.7347V100.759L175.533 103.953L178.211 108.59H179.739V111H174.612V108.59H175.414L172.826 104.072H168.592V108.59H170.315V111H163.926V108.59H165.942V93.8311H163.926V91.4214H163.933ZM168.599 94.0132V101.48H174.298L175.965 99.7012V95.7855L174.326 94.0062H168.599V94.0132Z" fill="#000252"/>
<path d="M197.445 98.5311H195.053V95.8832L193.323 94.0129H188.922L187.429 95.61V98.5591L188.838 100.065H194.823L197.731 103.259V107.686L194.739 111H187.485L184.492 107.686V103.89H186.885V106.538L188.643 108.408H193.623L195.095 106.811V104.128L193.714 102.65H187.729L184.792 99.4277V94.7274L187.785 91.4141H194.46L197.452 94.7274V98.5241L197.445 98.5311Z" fill="#000252"/>
<path d="M194.605 27.5503L208.535 13.7856V56.1444L194.605 69.9091V27.5503Z" fill="#C1003C"/>
<path d="M208.535 27.5503L222.465 13.7856V56.1514L208.535 69.9161V27.5503Z" fill="#C1003C"/>
<path d="M208.535 27.5503H194.605V69.9161H208.535V27.5503Z" fill="#FF1854"/>
</g>
<defs>
<clipPath id="clip0_42_395">
<rect width="441" height="111" fill="white"/>
</clipPath>
</defs>
</svg>
