<svg width="106" height="382" viewBox="0 0 106 382" fill="none" xmlns="http://www.w3.org/2000/svg">
<path d="M28.9937 1.26684e-06V17.1478L21.4156 17.1478V14.2665H25.9013V5.84107L16.0489 5.84106V14.2752H12.9565L12.9565 5.84106L3.10408 5.84106L3.10408 8.72231H0.0117117L0.0117121 0L3.10408 1.35172e-07L3.10408 2.52327L25.9103 2.52327V1.13206e-06L29.0027 1.26724e-06L28.9937 1.26684e-06Z" fill="#F8F8FC"/>
<path d="M0.00218466 26.1221L4.25419 22.3765H20.8757L25.1277 26.1221V36.285L20.8757 40.0306H4.25419L0.00218421 36.285L0.00218466 26.1221ZM3.32828 27.5278L3.32828 34.8444L5.37787 36.7216H19.761L21.8106 34.888V27.5714L19.761 25.703L5.37787 25.703L3.32828 27.5365V27.5278Z" fill="#F8F8FC"/>
<path d="M25.1316 46.6934L25.1316 61.1083L20.8796 64.8539H13.1487L9.04948 61.2131L3.09846 64.5658V66.4779H0.00609034L0.00609062 60.0606L3.09846 60.0606V61.0734L8.89666 57.8342V52.5344H3.09846V54.6997H0.00609085L0.0060912 46.7021H3.09846V49.2254L22.0392 49.2254V46.7021H25.1316V46.6934ZM12.2228 52.5344L12.2228 59.6677L14.5061 61.7544H19.5312L21.8145 59.7026V52.5344H12.2228Z" fill="#F8F8FC"/>
<path d="M3.09238 94.6535L5.66744e-07 94.6535L9.31979e-07 86.2979H3.09238L3.09238 88.8211H25.8986V86.2979H28.991V93.7891L4.36888 104.31H25.8986V101.787H28.991V110.142H25.8986V107.619H0L2.17538e-07 102.642L24.5862 92.1215H3.09238L3.09238 94.6535Z" fill="#F8F8FC"/>
<path d="M25.1265 116.455L25.1265 133.603H17.5484V130.722H22.0341V122.287H14.1144L14.1144 130.722H11.0221L11.0221 122.287H3.10236L3.10236 130.722H7.5881V133.603L0.00998316 133.603L0.00998391 116.455H3.10236L3.10236 118.978H22.0431V116.455H25.1355H25.1265Z" fill="#F8F8FC"/>
<path d="M22.0353 138.107H25.1277V145.747H22.0353V143.223L3.67887 148.305L22.0353 153.421L22.0353 151.98H25.1277V159.76H22.0353V158.319L3.67887 163.401L22.0353 168.517V165.994H25.1277V173.633H22.0353V171.835L0.00218356 165.706L0.00218376 161.27L19.4464 155.866L0.00218423 150.461L0.00218442 146.026L22.0353 139.897V138.098V138.107Z" fill="#F8F8FC"/>
<path d="M28.9937 191.647V208.795H21.4156V205.913H25.9013V197.479H16.0489V205.913H12.9565V197.479H3.10408L3.10408 200.36L0.0117033 200.36L0.0117037 191.638H3.10408L3.10408 194.161H25.9103V191.638H29.0027L28.9937 191.647Z" fill="#F8F8FC"/>
<path d="M25.1277 228.438L20.8757 232.184H13.1448L9.04557 228.543L3.09456 231.896V233.808H0.00218392L0.00218421 227.391H3.09456V228.395L8.89275 225.155L8.89275 219.856H3.09456L3.09456 222.012H0.00218444L0.00218479 214.015H3.09456L3.09456 216.538H22.0353V214.015H25.1277V228.438ZM12.2188 219.864L12.2188 226.998L14.5022 229.084H19.5273L21.8106 227.033V219.864H12.2188Z" fill="#F8F8FC"/>
<path d="M25.1265 240.111L25.1265 257.259H17.5484V254.378H22.0341V245.944H14.1144L14.1144 254.378H11.0221L11.0221 245.944H3.10236L3.10236 254.378H7.5881L7.5881 257.259H0.00998324L0.00998399 240.111H3.10236L3.10236 242.635H22.0431V240.111H25.1355H25.1265Z" fill="#F8F8FC"/>
<path d="M16.0022 279.787V276.792H19.4002L21.8004 274.627V269.117L19.7508 267.249H15.9663L14.0335 269.013L14.0335 276.504L9.93435 280.145H4.25301L0.000997838 276.399L0.000998235 267.319L4.25301 263.573H9.1253V266.568H5.72728L3.32709 268.768L3.32709 275.002L5.37669 276.844H8.81965L10.7164 275.116L10.7164 267.624L14.8516 263.949H20.8835L25.1355 267.694V276.05L20.8835 279.796H16.0112L16.0022 279.787Z" fill="#F8F8FC"/>
<path d="M25.1316 286.447L25.1316 294.803H22.0392V292.28H14.1195L14.1195 303.377H22.0392V300.853H25.1316V309.218H22.0392V306.695H3.09846L3.09846 309.218H0.00609022L0.00609058 300.853H3.09846L3.09846 303.377H11.0182L11.0182 292.28H3.09846V294.803H0.00609085L0.00609121 286.447H3.09846V288.971H22.0392V286.447H25.1316Z" fill="#F8F8FC"/>
<path d="M25.1265 315.879L25.1265 333.027H17.5484V330.146H22.0341V321.712H14.1144L14.1144 330.146H11.0221L11.0221 321.712H3.10236L3.10236 330.146H7.5881L7.5881 333.027H0.00998327L0.00998402 315.879H3.10236V318.403H22.0431V315.879H25.1355H25.1265Z" fill="#F8F8FC"/>
<path d="M25.1277 354.114L20.8757 357.859H13.1448L9.04557 354.218L3.09456 357.571V359.483H0.00218391L0.0021842 353.066H3.09456V354.07L8.89275 350.831L8.89275 345.531H3.09456L3.09456 347.688H0.00218443L0.00218478 339.69H3.09456L3.09456 342.213H22.0353V339.69H25.1277V354.114ZM12.2188 345.54L12.2188 352.673L14.5022 354.76H19.5273L21.8106 352.708V345.54H12.2188Z" fill="#F8F8FC"/>
<path d="M16.0022 381.642V378.647H19.4002L21.8004 376.49V370.981L19.7508 369.104H15.9663L14.0335 370.868L14.0335 378.359L9.93435 382H4.25301L0.000997916 378.254L0.000998313 369.174L4.25301 365.428H9.1253V368.423H5.72728L3.32709 370.623L3.32709 376.857L5.37669 378.699H8.81965L10.7164 376.971L10.7164 369.479L14.8516 365.804H20.8835L25.1355 369.549V377.905L20.8835 381.65H16.0112L16.0022 381.642Z" fill="#F8F8FC"/>
<path d="M66.9942 1.22315e-06V17.1628L59.6775 17.1628V14.279H64.0085V5.84618L54.4959 5.84618L54.4959 14.2878H51.5101L51.5101 5.84618L41.9974 5.84618V8.72995H39.0117L39.0117 0L41.9974 1.30511e-07V2.52548L64.0172 2.52548V1.09302e-06L67.0029 1.22353e-06L66.9942 1.22315e-06Z" fill="#F8F8FC"/>
<path d="M39.0017 26.1449L43.1071 22.396H59.1554L63.2607 26.1449V36.3167L59.1554 40.0656H43.1071L39.0017 36.3167L39.0017 26.1449ZM42.2131 27.5518L42.2131 34.8748L44.192 36.7537H58.0791L60.058 34.9098V27.5868L58.0791 25.708H44.192L42.2131 27.5518Z" fill="#F8F8FC"/>
<path d="M63.2646 61.1629L59.1593 64.9118H51.6949L47.7371 61.2677L41.9913 64.6234V66.5372H39.0056L39.0056 60.1142H41.9913V61.1192L47.5896 57.8771V52.5727H41.9913L41.9913 54.7312L39.0056 54.7312L39.0056 46.7266H41.9913L41.9913 49.252L60.2789 49.252V46.7266H63.2646L63.2646 61.1629ZM50.801 52.5815V59.721L53.0055 61.8095H57.8573L60.0619 59.7559V52.5815H50.801Z" fill="#F8F8FC"/>
<path d="M66.9912 100.145H64.0055V98.4849L41.9857 104.829V106.629L39 106.629L39 98.983H41.9857V101.509L47.7315 99.8482L47.7315 90.7949L41.9857 89.1345V91.66L39 91.66L39 84.0137H41.9857V85.8138L64.0055 92.1581V90.4978H66.9912V100.145ZM63.45 95.3128L50.7259 91.6688L50.7259 98.9918L63.45 95.3128Z" fill="#F8F8FC"/>
<path d="M47.8113 124.666V127.549H43.1071L39.0017 123.801L39.0017 114.712L43.1071 110.963H59.1554L63.2607 114.712V123.801L59.1554 127.549H54.4511V124.666H57.6278L60.0493 122.394V116.154L58.0704 114.284H44.1833L42.2044 116.119L42.2044 122.359L44.626 124.666H47.8113Z" fill="#F8F8FC"/>
<path d="M39.0017 146.347L39.0017 135.817H41.9874V139.426H60.275V134.445H55.944V131.701H63.2607L63.2607 150.454H55.944V147.71H60.275V142.729H41.9874L41.9874 146.338H39.0017L39.0017 146.347Z" fill="#F8F8FC"/>
<path d="M41.9874 154.963L41.9874 157.847H60.275V154.963H63.2607V164.052H60.275V161.168L41.9874 161.168L41.9874 164.052H39.0017L39.0017 154.963H41.9874Z" fill="#F8F8FC"/>
<path d="M60.2789 168.192H63.2646L63.2646 175.839H60.2789V173.497L41.9566 179.841L60.2789 186.22V183.878H63.2646V191.525H60.2789V189.541L39.0056 182.148L39.0056 177.569L60.2789 170.176V168.192Z" fill="#F8F8FC"/>
<path d="M63.2638 196.035L63.2638 213.198H55.947V210.314H60.278V201.873H52.6314L52.6314 210.314H49.6457L49.6457 201.873H41.9991L41.9991 210.314H46.3302V213.198H39.0134L39.0134 196.035H41.9991V198.561H60.2867V196.035H63.2724H63.2638Z" fill="#F8F8FC"/>
<path d="M39.0039 246.239L39.0039 235.709H41.9896V239.318H64.0094V233.979H59.6783V231.235H66.9951L66.9951 250.713H59.6783V247.969H64.0094V242.63L41.9896 242.63L41.9896 246.239H39.0039Z" fill="#F8F8FC"/>
<path d="M63.2638 255.212L63.2638 272.375H55.947V269.491H60.278V261.049H52.6314L52.6314 269.491H49.6457L49.6457 261.049H41.9991L41.9991 269.491H46.3302V272.375H39.0134L39.0134 255.212H41.9991V257.737H60.2867V255.212H63.2724H63.2638Z" fill="#F8F8FC"/>
<path d="M39.0056 291.68H41.9913L41.9913 294.057L46.6175 292.501L46.6175 283.483L41.9913 281.927V284.348H39.0056L39.0056 276.702H41.9913V278.615L60.2789 284.706V283.194H63.2646V292.825H60.2789V291.269L41.9913 297.36L41.9913 299.309H39.0056L39.0056 291.662L39.0056 291.68ZM60.1661 288.001L49.6032 284.47L49.6032 291.54L60.1661 288.009V288.001Z" fill="#F8F8FC"/>
<path d="M41.9913 309.489V312.014H39.0056L39.0056 303.651H41.9913V306.177L60.2789 306.177V303.651H63.2646L63.2646 311.009L45.6107 317.826L63.2646 324.642V332H60.2789V329.474H41.9913L41.9913 332H39.0056L39.0056 323.628H41.9913L41.9913 326.153H59.0464L41.9913 319.407V316.235L59.0464 309.489H41.9913Z" fill="#F8F8FC"/>
<path d="M105.994 1.26683e-06V17.1825L98.416 17.1825V14.2954H102.902V5.85289L93.0493 5.85289V14.3041H89.9569V5.85289L80.1046 5.85289L80.1046 8.73996H77.0122L77.0122 0L80.1046 1.35171e-07L80.1046 2.52838L102.911 2.52838V1.13206e-06L106.003 1.26723e-06L105.994 1.26683e-06Z" fill="#F8F8FC"/>
<path d="M77.0026 26.1751L81.2546 22.4219H97.876L102.128 26.1751V36.3586L97.876 40.1118H81.2546L77.0026 36.3586L77.0026 26.1751ZM80.3287 27.5836L80.3287 34.915L82.3783 36.796H96.7613L98.8109 34.95V27.6186L96.7613 25.7376L82.3783 25.7376L80.3287 27.5836Z" fill="#F8F8FC"/>
<path d="M102.128 61.2331L97.876 64.9863H90.1451L86.046 61.3381L80.095 64.6976V66.6136H77.0026L77.0026 60.1833L80.095 60.1833V61.1894L85.8931 57.9436L85.8931 52.6332H80.095V54.7941H77.0026L77.0026 46.7803H80.095V49.3087H99.0356V46.7803H102.128V61.2331ZM89.2192 52.6419L89.2192 59.7896L91.5025 61.8805H96.5276L98.8109 59.8246V52.6419H89.2192Z" fill="#F8F8FC"/>
<path d="M105.995 86.4727V95.2126H102.903V92.3255H80.0967L80.0967 100.199H84.5825V102.946H77.0044L77.0044 86.4814H80.0967L80.0967 89.0098H102.903V86.4814H105.995V86.4727Z" fill="#F8F8FC"/>
<path d="M102.127 107.443V124.626H94.5488L94.5488 121.739H99.0345V113.288H91.1148L91.1148 121.739H88.0225L88.0225 113.288H80.1028L80.1028 121.739H84.5885V124.626H77.0105L77.0105 107.443H80.1028V109.972L99.0435 109.972V107.443H102.136H102.127Z" fill="#F8F8FC"/>
<path d="M77.0065 143.951H80.0989V146.331L84.8902 144.774L84.8902 135.745L80.0989 134.188V136.611H77.0065L77.0065 128.956H80.0989V130.872L99.0396 136.97V135.456H102.132V145.097H99.0396V143.54L80.0989 149.638V151.589H77.0065L77.0065 143.934L77.0065 143.951ZM98.9227 140.268L87.9826 136.734V143.811L98.9227 140.277V140.268Z" fill="#F8F8FC"/>
<path d="M102.128 155.937V171.317L97.876 175.07H81.2546L77.0026 171.317L77.0026 155.937H80.095V158.465H99.0356V155.937H102.128ZM80.3287 161.781L80.3287 169.865L82.3783 171.746H96.7613L98.8109 169.9V161.772H80.3377L80.3287 161.781Z" fill="#F8F8FC"/>
<path d="M102.127 181.745L102.127 198.927H94.5488V196.04H99.0345V187.589H91.1148V196.04H88.0225V187.589H80.1028L80.1028 196.04H84.5885V198.927H77.0105L77.0105 181.745H80.1028V184.273H99.0435V181.745H102.136H102.127Z" fill="#F8F8FC"/>
<path d="M102.128 220.056L97.876 223.81H90.1451L86.046 220.161L80.095 223.521L80.095 225.437L77.0026 225.437L77.0026 219.007H80.095L80.095 220.013L85.8931 216.767L85.8931 211.456H80.095V213.617H77.0026L77.0026 205.604H80.095V208.132H99.0356V205.604H102.128V220.056ZM89.2192 211.465L89.2192 218.613L91.5025 220.704H96.5276L98.8109 218.648V211.465H89.2192Z" fill="#F8F8FC"/>
<path d="M93.0026 247.641V244.641H96.4006L98.8007 242.471V236.95L96.7512 235.078H92.9666L91.0339 236.845V244.352L86.9347 248H81.2535L77.0015 244.247L77.0015 235.148L81.2535 231.395H86.1257L86.1257 234.396H82.7277L80.3276 236.601L80.3276 242.847L82.3771 244.693H85.8201L87.7168 242.961V235.454L91.8519 231.771H97.8838L102.136 235.524V243.897L97.8838 247.65H93.0116L93.0026 247.641Z" fill="#F8F8FC"/>
</svg>
