<svg width="240" height="39" viewBox="0 0 240 39" fill="none" xmlns="http://www.w3.org/2000/svg">
<mask id="mask0_42_797" style="mask-type:luminance" maskUnits="userSpaceOnUse" x="0" y="0" width="240" height="39">
<path d="M240 0H0V38.2533H240V0Z" fill="white"/>
</mask>
<g mask="url(#mask0_42_797)">
<path d="M218.316 38.2539V10.9395H232.334L239.998 18.4722H225.98V38.2539H218.316Z" fill="white"/>
<path d="M168.927 10.875H151.897L146.395 16.3772V32.6872L151.897 38.1894H168.927L174.429 32.6872V16.3772L168.927 10.875ZM166.766 22.5999V30.6567H150.194L153.993 28.4296V18.4078H166.766V22.5344V22.5999Z" fill="white"/>
<path d="M204.826 10.875H187.795L182.293 16.3772V32.6872L187.795 38.1894H204.826L210.328 32.6872V16.3772L204.826 10.875ZM202.664 22.5999V30.6567H186.092L189.891 28.4296V18.4078H202.664V22.5344V22.5999Z" fill="white"/>
<path d="M43.8864 38.2539L36.2227 30.7211V10.9395H43.8864V30.7211H56.6593V10.9395H64.3231V38.2539H43.8864Z" fill="white"/>
<path d="M73.6875 38.2542V10.9398H81.3513V38.2542H73.6875ZM73.6875 7.53373V0.000976562H81.3513V7.53373H73.6875Z" fill="white"/>
<path d="M90.3281 38.2542V0.000976562H97.9919V38.2542H90.3281Z" fill="white"/>
<path d="M28.034 7.53373L20.3703 0.000976562H-0.0664062V38.2542H20.3703L28.034 30.7215V21.3547L24.2349 19.1276L28.034 16.9005V7.53373ZM20.4358 30.7215H3.86372L7.66285 28.4944V22.5992H20.4358V30.656V30.7215ZM20.4358 8.71276V15.656H3.86372L7.66285 13.4289V7.53373H20.4358V8.64726V8.71276Z" fill="white"/>
<path d="M130.874 0.000976562H112.664V15.0665L120.328 7.53373H130.939V30.7215H120.328L112.664 38.2542H130.874L138.537 30.7215V7.53373L130.874 0.000976562Z" fill="white"/>
<path d="M112.664 7.5332L105 15.066H112.664V7.5332Z" fill="#C1003C"/>
<path d="M120.328 7.5332L112.664 15.066V38.2537L120.328 30.721V7.5332Z" fill="#C1003C"/>
<path d="M112.664 15.0664H105V38.2542H112.664V15.0664Z" fill="#FF1854"/>
</g>
</svg>
