<svg width="608" height="97" viewBox="0 0 608 97" fill="none" xmlns="http://www.w3.org/2000/svg">
<mask id="mask0_42_156" style="mask-type:luminance" maskUnits="userSpaceOnUse" x="0" y="0" width="608" height="97">
<path d="M607.433 0H0V96.8179H607.433V0Z" fill="white"/>
</mask>
<g mask="url(#mask0_42_156)">
<path d="M552.559 96.8155V27.6836H588.036L607.433 46.7488H571.955V96.8155H552.559Z" fill="#000252"/>
<path d="M427.553 27.521H384.449L370.523 41.4469V82.7271L384.449 96.6529H427.553L441.479 82.7271V41.4469L427.553 27.521ZM422.082 57.1963V77.5878H380.139L389.754 71.9511V46.5862H422.082V57.0305V57.1963Z" fill="#000252"/>
<path d="M518.405 27.521H475.301L461.375 41.4469V82.7271L475.301 96.6529H518.405L532.331 82.7271V41.4469L518.405 27.521ZM512.934 57.1963V77.5878H470.99L480.606 71.9511V46.5862H512.934V57.0305V57.1963Z" fill="#000252"/>
<path d="M111.076 96.8155L91.6797 77.7504V27.6836H111.076V77.7504H143.404V27.6836H162.801V96.8155H111.076Z" fill="#000252"/>
<path d="M186.508 96.8174V27.6854H205.905V96.8174H186.508ZM186.508 19.0647V-0.000488281H205.905V19.0647H186.508Z" fill="#000252"/>
<path d="M228.617 96.8174V-0.000488281H248.014V96.8174H228.617Z" fill="#000252"/>
<path d="M70.9573 19.0647L51.5606 -0.000488281H-0.164062V96.8174H51.5606L70.9573 77.7522V54.0451L61.3418 48.4084L70.9573 42.7718V19.0647ZM51.7263 77.7522H9.78298L19.3985 72.1156V57.195H51.7263V77.5864V77.7522ZM51.7263 22.0488V39.6219H9.78298L19.3985 33.9852V19.0647H51.7263V21.883V22.0488Z" fill="#000252"/>
<path d="M331.236 -0.000488281H285.148V38.1298L304.545 19.0647H331.402V77.7522H304.545L285.148 96.8174H331.236L350.633 77.7522V19.0647L331.236 -0.000488281Z" fill="#000252"/>
<path d="M285.147 19.0645L265.75 38.1296H285.147V19.0645Z" fill="#C1003C"/>
<path d="M304.545 19.0645L285.148 38.1296V96.8171L304.545 77.752V19.0645Z" fill="#C1003C"/>
<path d="M285.147 38.1304H265.75V96.8179H285.147V38.1304Z" fill="#FF1854"/>
</g>
</svg>
