<svg width="390" height="319" viewBox="0 0 390 319" fill="none" xmlns="http://www.w3.org/2000/svg">
<mask id="mask0_42_1187" style="mask-type:luminance" maskUnits="userSpaceOnUse" x="0" y="0" width="390" height="319">
<path d="M390 0H0V318.783H390V0Z" fill="white"/>
</mask>
<g mask="url(#mask0_42_1187)">
<path d="M172.105 318.782V-0.000244141H325.562L389.997 62.7389V256.043L325.562 318.782H172.105ZM325.562 62.7389H201.355V256.043H325.562V62.7389Z" fill="#151763"/>
<path d="M236.543 62.7389L172.109 -0.000244141H0V318.782H172.109L236.543 256.043V178.043L204.326 159.815L236.543 141.587V63.5867V62.7389ZM172.109 256.043H32.2174L64.4348 237.815V188.641H172.109V256.043ZM172.109 72.4889V130.141H32.2174L64.4348 111.913V62.7389H172.109V72.4889Z" fill="#151763"/>
</g>
</svg>
