<svg width="41" height="33" viewBox="0 0 41 33" fill="none" xmlns="http://www.w3.org/2000/svg">
<mask id="mask0_42_846" style="mask-type:luminance" maskUnits="userSpaceOnUse" x="0" y="0" width="41" height="33">
<path d="M40.2177 0.904297H0.85083V33H40.2177V0.904297Z" fill="white"/>
</mask>
<g mask="url(#mask0_42_846)">
<path d="M18.2234 33V0.904297H33.7134L40.2175 7.22099V26.6833L33.7134 33H18.2234ZM33.7134 7.22099H21.1759V26.6833H33.7134V7.22099Z" fill="#FF1854"/>
<path d="M24.7277 7.22099L18.2236 0.904297H0.85083V33H18.2236L24.7277 26.6833V18.8301L21.4757 16.9948L24.7277 15.1595V7.30635V7.22099ZM18.2236 26.6833H4.10288L7.35492 24.848V19.8971H18.2236V26.6833ZM18.2236 8.20264V14.0072H4.10288L7.35492 12.1719V7.22099H18.2236V8.20264Z" fill="#000252"/>
</g>
</svg>
