<svg width="106" height="27" viewBox="0 0 106 27" fill="none" xmlns="http://www.w3.org/2000/svg">
<g clip-path="url(#clip0_42_786)">
<path d="M13.8893 0C11.4928 0 9.28059 0.558621 7.25277 1.67586C5.25567 2.7931 3.62726 4.34483 2.36755 6.26897C1.10784 8.22414 0.370449 10.3655 0.0939273 12.7552C-0.182594 15.1759 0.124652 17.3793 1.04639 19.3655C1.96813 21.3517 3.32001 22.9035 5.16349 24.0517C6.97625 25.2 9.0348 25.7586 11.3699 25.7586C12.6603 25.7586 13.8893 25.6034 14.9954 25.2931C16.1015 24.9828 17.1154 24.5483 17.9757 23.9897L18.5287 19.1483C17.4533 20.0793 16.378 20.7621 15.3026 21.1966C14.2273 21.631 13.0597 21.8483 11.7693 21.8483C10.1716 21.8483 8.75828 21.4448 7.52929 20.6379C6.3003 19.831 5.40929 18.7448 4.82552 17.3793C4.24175 16.0138 4.05741 14.4931 4.24175 12.7862C4.4261 11.1724 4.94842 9.68276 5.80871 8.31724C6.669 6.95172 7.83654 5.89655 9.21914 5.12069C10.6325 4.34483 12.1687 3.94138 13.8893 3.94138C15.0261 3.94138 16.1015 4.15862 17.1768 4.62414C18.2522 5.08966 19.2354 5.71034 20.1264 6.45517L20.618 1.73793C19.6962 1.17931 18.6823 0.744828 17.5148 0.434483C16.4087 0.155172 15.1797 0 13.8893 0Z" fill="#F8F8FC"/>
<path d="M35.1809 11.4211H35.1502C34.9044 11.0487 34.5357 10.6763 34.0134 10.3039C33.4911 9.93147 32.9073 9.65215 32.2314 9.40388C31.5554 9.18664 30.8795 9.0625 30.1728 9.0625C28.6673 9.0625 27.2847 9.40388 26.0557 10.0556C24.8267 10.7384 23.8435 11.6694 23.1062 12.9108C22.338 14.1522 21.8772 15.5797 21.6928 17.1625C21.5392 18.8384 21.7543 20.328 22.3073 21.6315C22.8604 22.9349 23.7206 23.9591 24.8267 24.6728C25.9328 25.3866 27.2233 25.728 28.6059 25.728C29.7427 25.728 30.7259 25.5108 31.6169 25.0763C32.4772 24.6418 33.1838 24.1142 33.7062 23.4625H33.7369L33.4911 25.2625H37.4853L39.4209 9.43491H35.4267L35.1809 11.4211ZM34.6279 17.4108C34.505 18.4039 34.2592 19.2418 33.8598 19.9866C33.4604 20.7004 32.8766 21.2591 32.1699 21.6625C31.4633 22.0349 30.6337 22.2522 29.6505 22.2522C28.7902 22.2522 28.0835 22.0349 27.4383 21.6315C26.8238 21.228 26.363 20.6694 26.0557 19.9246C25.7485 19.1797 25.6563 18.3418 25.7485 17.4108C25.8406 16.5108 26.0864 15.7039 26.4859 14.9901C26.8853 14.2763 27.4383 13.7177 28.145 13.2832C28.8517 12.8487 29.6505 12.6315 30.5722 12.6315C31.4325 12.6315 32.2006 12.8487 32.8459 13.2832C33.4911 13.7177 33.952 14.2763 34.2592 15.0211C34.5972 15.7039 34.7201 16.5108 34.6279 17.4108Z" fill="#F8F8FC"/>
<path d="M54.9657 9.77608C54.1976 9.27953 53.2759 9.03125 52.2005 9.03125C51.4938 9.03125 50.8179 9.12435 50.2341 9.27953C49.6504 9.46573 49.128 9.71401 48.6672 10.0244C48.2063 10.3347 47.7454 10.7381 47.3153 11.2347H47.2538L47.4689 9.46573H43.5054L41.5391 25.2933H45.5333L46.5779 16.7588C46.7008 15.7657 46.9773 14.9588 47.346 14.3692C47.7147 13.7485 48.1756 13.314 48.7286 13.0347C49.2509 12.7554 49.8654 12.6313 50.5414 12.6313C51.0944 12.6313 51.586 12.7554 51.9547 13.0037C52.3234 13.2519 52.5999 13.6554 52.7536 14.183C52.9072 14.7106 52.9379 15.3933 52.8457 16.2002L51.7396 25.3244H55.7646L56.9321 15.8899C57.1165 14.3692 57.0243 13.0968 56.6556 12.1037C56.3176 11.0485 55.7646 10.2726 54.9657 9.77608Z" fill="#F8F8FC"/>
<path d="M71.1298 9.46484L65.8451 18.4338L63.5715 9.46484H59.3008L64.1245 25.2924L64.6469 26.9993L65.6915 25.2924L75.4005 9.46484H71.1298Z" fill="#F8F8FC"/>
<path d="M88.552 11.4211H88.5213C88.2755 11.0487 87.9068 10.6763 87.3845 10.3039C86.8622 9.93147 86.2784 9.65215 85.6025 9.40388C84.9265 9.18664 84.2506 9.0625 83.5439 9.0625C82.0384 9.0625 80.6558 9.40388 79.4268 10.0556C78.1978 10.7384 77.2146 11.6694 76.4772 12.9108C75.7091 14.1522 75.2483 15.5797 75.0639 17.1625C74.9103 18.8384 75.1254 20.328 75.6784 21.6315C76.2314 22.9349 77.0917 23.9591 78.1978 24.6728C79.3039 25.3866 80.5943 25.728 81.977 25.728C83.1138 25.728 84.097 25.5108 84.988 25.0763C85.8483 24.6418 86.5549 24.1142 87.0772 23.4625H87.108L86.8622 25.2625H90.8564L92.792 9.43491H88.7978L88.552 11.4211ZM87.999 17.4108C87.8761 18.4039 87.6303 19.2418 87.2309 19.9866C86.8314 20.7004 86.2477 21.2591 85.541 21.6625C84.8343 22.0349 84.0048 22.2522 83.0216 22.2522C82.1613 22.2522 81.4546 22.0349 80.8094 21.6315C80.1949 21.228 79.7341 20.6694 79.4268 19.9246C79.1196 19.1797 79.0274 18.3418 79.1196 17.4108C79.2117 16.5108 79.4575 15.7039 79.857 14.9901C80.2564 14.2763 80.8094 13.7177 81.5161 13.2832C82.2227 12.8487 83.0216 12.6315 83.9433 12.6315C84.8036 12.6315 85.5717 12.8487 86.217 13.2832C86.8622 13.7177 87.323 14.2763 87.6303 15.0211C87.9683 15.7039 88.0912 16.5108 87.999 17.4108Z" fill="#F8F8FC"/>
<path d="M104.098 17.0694C103.545 16.5418 102.839 16.0763 102.009 15.6728C101.241 15.3315 100.688 15.0211 100.289 14.8039C99.9199 14.5866 99.6434 14.3694 99.5512 14.1522C99.4283 13.9659 99.3976 13.7487 99.3976 13.5004C99.4283 13.1901 99.5512 12.9418 99.8278 12.7556C100.074 12.5694 100.442 12.4763 100.872 12.4763C101.333 12.4763 101.763 12.5694 102.132 12.7556C102.532 12.9418 102.87 13.2211 103.207 13.5935L106.003 11.2659C105.512 10.5832 104.836 10.0556 103.976 9.65216C103.115 9.24871 102.194 9.0625 101.149 9.0625C100.135 9.0625 99.244 9.24871 98.4144 9.59009C97.6156 9.93147 96.9396 10.4591 96.4173 11.1108C95.895 11.7625 95.5878 12.5384 95.4956 13.4384C95.4341 14.1832 95.4956 14.8659 95.7107 15.4556C95.9257 16.0453 96.2944 16.5728 96.8168 17.0694C97.3391 17.5659 98.0765 18.0004 98.9675 18.4039C99.6741 18.7453 100.196 19.0246 100.534 19.2728C100.903 19.5211 101.149 19.7694 101.272 20.0177C101.425 20.2659 101.487 20.5763 101.456 20.9177C101.425 21.197 101.333 21.4453 101.21 21.6625C101.057 21.8797 100.872 22.0349 100.627 22.128C100.412 22.2211 100.135 22.2832 99.797 22.2832C99.2747 22.2832 98.7524 22.128 98.2301 21.8177C97.7078 21.5073 97.1854 21.0728 96.7246 20.5453L93.8672 22.9039C94.3895 23.7108 95.1576 24.3625 96.1408 24.8901C97.124 25.3866 98.3223 25.6349 99.7356 25.6349C100.811 25.6349 101.763 25.4487 102.593 25.1073C103.423 24.7659 104.098 24.2384 104.621 23.5246C105.143 22.8108 105.45 21.9418 105.543 20.9177C105.604 20.1728 105.512 19.4901 105.297 18.8384C105.051 18.1866 104.652 17.597 104.098 17.0694Z" fill="#F8F8FC"/>
</g>
<defs>
<clipPath id="clip0_42_786">
<rect width="106" height="27" fill="white"/>
</clipPath>
</defs>
</svg>
